{"title":"The Dark Knight[2008]BRrip[Ac3-5.1]-=[CaLvIn]=-","uid":7266263,"size":1066950489,"categoryP":"video","categoryS":"movies","magnet":"?xt=urn:btih:6005050a1f520464b23baea6b42c9063b33664ab&amp;dn=The+Dark+Knight%5B2008%5DBRrip%5BAc3-5.1%5D-%3D%5BCaLvIn%5D%3D-&amp;tr=udp%3A%2F%2Ftracker.openbittorrent.com%3A80&amp;tr=udp%3A%2F%2Fopen.demonii.com%3A1337&amp;tr=udp%3A%2F%2Ftracker.coppersurfer.tk%3A6969&amp;tr=udp%3A%2F%2Fexodus.desync.com%3A6969","seeders":0,"leechers":1,"uploader":"rhythmtheguru","files":15,"time":1336903670,"description":"General\nComplete name                    : The Dark Knight[2008]BRrip[Ac3-5.1]-=[CaLvIn]=-\nImdb Link                        : http://www.imdb.com/title/tt0468569\nFormat                           : AVI\nFormat/Info                      : Audio Video Interleave\nFile size                        : 1 002 MiB\nDuration                         : 2h 32mn\nOverall bit rate                 : 920 Kbps\nWriting application              : VirtualDubMod 1.5.10.3 | www.virtualdub-fr.org || (build 2550/release)\nWriting library                  : VirtualDubMod build 2550/release\n\nVideo\nID                               : 0\nFormat                           : MPEG-4 Visual\nFormat profile                   : Advanced Simple@L5\nFormat settings, BVOP            : 2\nFormat settings, QPel            : No\nFormat settings, GMC             : No warppoints\nFormat settings, Matrix          : Default (H.263)\nCodec ID                         : XVID\nCodec ID/Hint                    : XviD\nDuration                         : 2h 32mn\nBit rate                         : 718 Kbps\nWidth                            : 720 pixels\nHeight                           : 400 pixels\nDisplay aspect ratio             : 16:9\nFrame rate                       : 23.976 fps\nColor space                      : YUV\nChroma subsampling               : 4:2:0\nBit depth                        : 8 bits\nScan type                        : Progressive\nCompression mode                 : Lossy\nBits/(Pixel*Frame)               : 0.104\nStream size                      : 782 MiB (78%)\nWriting library                  : XviD 1.2.1 (UTC 2008-12-04)\n\nAudio\nID                               : 1\nFormat                           : AC-3\nFormat/Info                      : Audio Coding 3\nMode extension                   : CM (complete main)\nCodec ID                         : 2000\nDuration                         : 2h 32mn\nBit rate mode                    : Constant\nBit rate                         : 192 Kbps\nChannel(s)                       : 6 channels\nChannel positions                : Front: L C R, Side: L R, LFE\nSampling rate                    : 48.0 KHz\nBit depth                        : 16 bits\nCompression mode                 : Lossy\nStream size                      : 209 MiB (21%)\nAlignment                        : Split accross interleaves\nInterleave, duration             : 42 ms (1.00 video frame)\nInterleave, preload duration     : 500 ms\n\nScreens\n &lt;a href=&quot;\nhttp://img59.imageshack.us/img59/3370/53636144.png&quot; rel=&quot;nofollow&quot; target=&quot;_NEW&quot;&gt;\nhttp://img59.imageshack.us/img59/3370/53636144.png&lt;/a&gt; &lt;a href=&quot;\nhttp://img14.imageshack.us/img14/6318/78884344.png&quot; rel=&quot;nofollow&quot; target=&quot;_NEW&quot;&gt;\nhttp://img14.imageshack.us/img14/6318/78884344.png&lt;/a&gt; &lt;a href=&quot;\nhttp://img851.imageshack.us/img851/341/37297589.png&quot; rel=&quot;nofollow&quot; target=&quot;_NEW&quot;&gt;\nhttp://img851.imageshack.us/img851/341/37297589.png&lt;/a&gt; &lt;a href=&quot;\nhttp://img84.imageshack.us/img84/740/25257482.png&quot; rel=&quot;nofollow&quot; target=&quot;_NEW&quot;&gt;\nhttp://img84.imageshack.us/img84/740/25257482.png&lt;/a&gt; &lt;a href=&quot;\nhttp://img195.imageshack.us/img195/6599/23997640.png&quot; rel=&quot;nofollow&quot; target=&quot;_NEW&quot;&gt;\nhttp://img195.imageshack.us/img195/6599/23997640.png&lt;/a&gt; &lt;a href=&quot;\nhttp://img805.imageshack.us/img805/2350/42305139.png&quot; rel=&quot;nofollow&quot; target=&quot;_NEW&quot;&gt;\nhttp://img805.imageshack.us/img805/2350/42305139.png&lt;/a&gt; &lt;a href=&quot;\nhttp://img201.imageshack.us/img201/9517/96492722.png&quot; rel=&quot;nofollow&quot; target=&quot;_NEW&quot;&gt;\nhttp://img201.imageshack.us/img201/9517/96492722.png&lt;/a&gt; &lt;a href=&quot;\nhttp://img840.imageshack.us/img840/6038/84804651.png&quot; rel=&quot;nofollow&quot; target=&quot;_NEW&quot;&gt;\nhttp://img840.imageshack.us/img840/6038/84804651.png&lt;/a&gt; &lt;a href=&quot;\nhttp://img824.imageshack.us/img824/4142/14540027.png&quot; rel=&quot;nofollow&quot; target=&quot;_NEW&quot;&gt;\nhttp://img824.imageshack.us/img824/4142/14540027.png&lt;/a&gt; &lt;a href=&quot;\nhttp://img135.imageshack.us/img135/3636/23540282.png&quot; rel=&quot;nofollow&quot; target=&quot;_NEW&quot;&gt;\nhttp://img135.imageshack.us/img135/3636/23540282.png&lt;/a&gt;\n","torrent":{"xt":"urn:btih:6005050a1f520464b23baea6b42c9063b33664ab","amp;dn":"The+Dark+Knight%5B2008%5DBRrip%5BAc3-5.1%5D-%3D%5BCaLvIn%5D%3D-","amp;tr":["udp%3A%2F%2Ftracker.openbittorrent.com%3A80","udp%3A%2F%2Fopen.demonii.com%3A1337","udp%3A%2F%2Ftracker.coppersurfer.tk%3A6969","udp%3A%2F%2Fexodus.desync.com%3A6969"],"infoHash":"6005050a1f520464b23baea6b42c9063b33664ab","infoHashBuffer":{"type":"Buffer","data":[96,5,5,10,31,82,4,100,178,59,174,166,180,44,144,99,179,54,100,171]},"announce":[],"urlList":[]}}